<svg xmlns="http://www.w3.org/2000/svg" id="Layer_1" data-name="Layer 1" viewBox="0 0 134.35 161.63"><defs><style>.cls-1{fill:#fff;}</style></defs><g id="Footer_Logo" data-name="Footer Logo"><g id="Shield_Icon" data-name="Shield Icon"><g id="Group_1" data-name="Group 1"><path id="Path_1" data-name="Path 1" class="cls-1" d="M81,17.17,72,15.31l-.36-8L61.24,5.79,61.54,0H62c.29,0,1.13.12,2.22.27l.65.09A112.42,112.42,0,0,1,78.62,3l.28.12.42.19Z"></path></g><g id="Group_2" data-name="Group 2"><path id="Path_2" data-name="Path 2" class="cls-1" d="M73.55,47.25l0,.5L62.41,47,63.16,33l-13.77-.83,1.4-9.68h.44a139.61,139.61,0,0,1,22.25,2.16l.41.08,0,1.32C74,32.93,74.08,40.09,73.55,47.25Z"></path></g><g id="Group_3" data-name="Group 3"><path id="Path_3" data-name="Path 3" class="cls-1" d="M63.67,61,61.52,79.73l-9.54-1,.23-9.29-11.62-2-.38-9.31.61.1A184.09,184.09,0,0,0,63.14,61Z"></path></g><g id="Group_4" data-name="Group 4"><path id="Path_4" data-name="Path 4" class="cls-1" d="M93.91,50.89l0,.52a111.83,111.83,0,0,1-2.9,19l-.08.35L83,71.55,85,60.7l-11,.25,1.34-10.71Z"></path></g><g id="Group_5" data-name="Group 5"><path id="Path_5" data-name="Path 5" class="cls-1" d="M39.28,32.69A149.57,149.57,0,0,0,38,54.77v.6L29.63,54V42.19l-8-.53-.06-.4c-.18-1.22.27-7.7.88-8.6l.15-.22,16.77-.32Z"></path></g><g id="Group_6" data-name="Group 6"><path id="Path_6" data-name="Path 6" class="cls-1" d="M51.79,4.34l-3.15,16-.66.06c-.24,0-.49,0-.73,0H45.32c-1,0-2.08,0-3.11,0-.52,0-1.06.06-1.62.12l-.88.07-.69.06,2.22-9.4-9.71.92,2.2-6.9.33,0a112.71,112.71,0,0,1,17.13-1Z"></path></g><g id="Group_7" data-name="Group 7"><path id="Path_7" data-name="Path 7" class="cls-1" d="M99.81,40.91v.59l-6.61-1-.55-10.68L83.58,27.6,82.85,19l15.4,4.54,0,.31A113.48,113.48,0,0,1,99.81,40.91Z"></path></g><g id="Group_8" data-name="Group 8"><path id="Path_8" data-name="Path 8" class="cls-1" d="M82.85,80.24l-4.35,13-7.89.39,1.77-6.24H62.17l1-6.64.45,0a117.21,117.21,0,0,0,18.45-.47Z"></path></g><g id="Group_9" data-name="Group 9"><path id="Path_9" data-name="Path 9" class="cls-1" d="M25,13.7l-.07.24a105.22,105.22,0,0,0-3.52,16.19l0,.4-6,.51,0-.59a61.28,61.28,0,0,1,1-6.33l.45-2.39L11,22.87l1.77-7.24,11.64-2.69Z"></path></g><g id="Group_10" data-name="Group 10"><path id="Path_10" data-name="Path 10" class="cls-1" d="M101.34,18.05l-6.07-2.43L93.6,8.83,86.32,6.12l-.06-.26s-1.05-4.3-.67-4.75l.23-.27,12,4.91Z"></path></g></g></g><path id="Path_6918" data-name="Path 6918" class="cls-1" d="M10.31,161.63c6,0,9.23-2.27,9.23-6.35,0-3.44-2.46-5.55-7.39-6.38l-3.44-.55C6.16,148,5,147.22,5,145.59s1.75-2.7,4.91-2.7h.49c3.19,0,5.24,1.29,5.58,3.59h4c-.43-4.3-3.93-6.93-9.82-6.93-6.26,0-9,3-9,6.22,0,3.78,2.12,5.43,6.94,6.26l3.34.55c3.07.49,4.27,1.41,4.27,2.89,0,1.65-1.51,2.82-5.22,2.82H10c-3.62,0-5.92-1.35-6-4H0C.09,159.15,4,161.63,10.31,161.63Zm16.63-.31v-7.73a4.83,4.83,0,0,1,4.67-5h.48c2.37,0,3.44,1.69,3.44,4.12v8.59h3.62V152c0-3.65-2.3-6.32-6.57-6.32a6.52,6.52,0,0,0-5.64,2.67v-8.5H23.32v21.47ZM47,143.74v-3.89h-4v3.89Zm-.15,17.58V146H43.26v15.34Zm19.76-8.13c0-4.51-3-7.52-7.92-7.52-4.23,0-8.5,2.67-8.5,7.86,0,5.37,3.78,8.1,8.66,8.1,3.95,0,7-1.9,7.58-5H62.77c-.45,1.32-1.84,2.08-3.71,2.08h-.43A4.53,4.53,0,0,1,54,154.6H66.64Zm-12.55-1.38a4.17,4.17,0,0,1,4.42-3.19h.43c2,0,3.77.86,3.9,3.19Zm19.51,9.51V139.84H70v21.48Zm11.51.31a7.45,7.45,0,0,0,5.77-2.37v2.06H94.5V139.84H90.88v8.29a7.13,7.13,0,0,0-5.83-2.45c-4.57,0-8.1,2.73-8.1,8,0,5,3.5,8,8.16,8Zm.27-2.95c-2.79,0-4.78-1.78-4.78-5s2-5,4.78-5h.43a4.73,4.73,0,0,1,5.06,4.4,4.42,4.42,0,0,1,0,.63,4.74,4.74,0,0,1-4.43,5,3.42,3.42,0,0,1-.64,0ZM128,161.32l-10-21.48h-4.45l-10,21.48h4l2.39-5.22h11.57l2.39,5.22ZM115.7,143.53l4.2,9.2h-8.43Zm18.65,17.79V139.85h-3.77v21.47Z"></path></svg>