<svg xmlns="http://www.w3.org/2000/svg" xmlns:xlink="http://www.w3.org/1999/xlink" id="Layer_1" x="0px" y="0px" viewBox="0 0 171 34.9" style="enable-background:new 0 0 171 34.9;" xml:space="preserve"><style type="text/css">	.st0{fill:#FFFFFF;}</style><g id="Group_1275" transform="translate(0 11.817)">	<path id="Path_6918" class="st0" d="M57.3,15.9c5.5,0,8.5-2.1,8.5-5.8c0-3.1-2.2-5.1-6.8-5.8l-3.1-0.5c-2.3-0.4-3.4-1-3.4-2.5  c0-1.4,1.6-2.5,4.5-2.5h0.5c2.9,0,4.8,1.2,5.1,3.3h3.6c-0.4-3.9-3.6-6.4-9-6.4c-5.7,0-8.2,2.8-8.2,5.7c0,3.5,1.9,5,6.4,5.7l3.1,0.5  c2.8,0.5,3.9,1.3,3.9,2.6c0,1.5-1.4,2.6-4.8,2.6h-0.5c-3.3,0-5.4-1.2-5.5-3.7h-3.7C48,13.6,51.6,15.9,57.3,15.9z M72.6,15.6V8.5  c-0.1-2.4,1.8-4.5,4.3-4.6c0,0,0,0,0,0h0.4c2.2,0,3.1,1.5,3.1,3.8v7.9h3.3V7.1c0-3.3-2.1-5.8-6-5.8c-2-0.1-4,0.8-5.2,2.4v-7.8h-3.3  v19.7L72.6,15.6z M91-0.5v-3.6h-3.6v3.6H91z M90.9,15.6V1.6h-3.3v14.1H90.9z M109,8.2c0-4.1-2.7-6.9-7.3-6.9  c-3.9,0-7.8,2.4-7.8,7.2c0,4.9,3.5,7.4,7.9,7.4c3.6,0,6.4-1.7,6.9-4.6h-3.4c-0.4,1.2-1.7,1.9-3.4,1.9h-0.4  c-2.2,0.1-4.1-1.6-4.3-3.7H109L109,8.2z M97.5,6.9c0.4-1.8,2.2-3.1,4-2.9h0.4c1.8,0,3.5,0.8,3.6,2.9H97.5z M115.3,15.6V-4.1H112  v19.7H115.3z M125.9,15.9c2,0.1,3.9-0.7,5.3-2.2v1.9h3.3V-4.1h-3.3v7.6c-1.3-1.5-3.3-2.4-5.3-2.2c-4.2,0-7.4,2.5-7.4,7.3  C118.4,13.1,121.6,15.9,125.9,15.9L125.9,15.9z M126.1,13.2c-2.6,0-4.4-1.6-4.4-4.6s1.8-4.6,4.4-4.6h0.4c2.4-0.2,4.5,1.6,4.6,4  c0,0.2,0,0.4,0,0.6c0.2,2.4-1.7,4.5-4.1,4.6c-0.2,0-0.4,0-0.6,0H126.1z M165.1,15.6L156-4.1h-4.1l-9.2,19.7h3.7l2.2-4.8h10.6  l2.2,4.8L165.1,15.6z M153.9-0.7l3.9,8.4H150L153.9-0.7z M171,15.6V-4.1h-3.5v19.7L171,15.6z"></path></g><g>	<path id="Path_12969" class="st0" d="M26.1,6.4l-3.3-0.7l-0.1-3l-3.9-0.6L18.8,0H19c0.1,0,0.4,0,0.8,0.1l0.2,0  c1.7,0.2,3.4,0.6,5.1,1c0,0,0.1,0,0.1,0l0.2,0.1L26.1,6.4z"></path>	<path id="Path_12970" class="st0" d="M23.3,17.6l0,0.2l-4.1-0.3l0.3-5.2L14.3,12l0.5-3.6H15c2.8,0,5.6,0.3,8.3,0.8l0.2,0l0,0.5  C23.5,12.3,23.5,14.9,23.3,17.6"></path>	<path id="Path_12971" class="st0" d="M19.6,22.7l-0.8,7l-3.6-0.4l0.1-3.5L11,25.2l-0.1-3.5l0.2,0c2.8,0.5,5.5,0.9,8.3,1L19.6,22.7z  "></path>	<path id="Path_12972" class="st0" d="M30.9,19l0,0.2c-0.2,2.4-0.5,4.8-1.1,7.1l0,0.1l-3,0.3l0.8-4l-4.1,0.1l0.5-4L30.9,19z"></path>	<path id="Path_12973" class="st0" d="M10.5,12.2c-0.4,2.7-0.5,5.5-0.5,8.2v0.2l-3.1-0.5v-4.4l-3-0.2l0-0.1c0-1.1,0.1-2.2,0.3-3.2  l0.1-0.1l6.2-0.1L10.5,12.2z"></path>	<path id="Path_12974" class="st0" d="M15.2,1.6l-1.2,6l-0.2,0c-0.1,0-0.2,0-0.3,0h-0.7c-0.4,0-0.8,0-1.2,0c-0.2,0-0.4,0-0.6,0  c-0.1,0-0.2,0-0.3,0l-0.3,0l0.8-3.5L7.6,4.6L8.5,2l0.1,0c2.1-0.3,4.2-0.4,6.4-0.4L15.2,1.6z"></path>	<path id="Path_12975" class="st0" d="M33.1,15.3v0.2l-2.5-0.4l-0.2-4L27,10.3l-0.3-3.2l5.7,1.7l0,0.1C32.9,11,33.1,13.1,33.1,15.3"></path>	<path id="Path_12976" class="st0" d="M26.8,29.9l-1.6,4.9l-2.9,0.1l0.7-2.3h-3.8l0.4-2.5l0.2,0c2.3,0.1,4.6,0.1,6.9-0.2L26.8,29.9z  "></path>	<path id="Path_12977" class="st0" d="M5.2,5.1L5.2,5.1c-0.6,2.1-1.1,4.1-1.3,6.1l0,0.1l-2.2,0.2l0-0.2C1.7,10.6,1.8,9.8,2,9  c0.1-0.3,0.1-0.6,0.2-0.9L0,8.5l0.7-2.7l4.3-1L5.2,5.1z"></path>	<path id="Path_12978" class="st0" d="M33.7,6.7l-2.3-0.9l-0.6-2.5l-2.7-1l0-0.1c-0.2-0.6-0.2-1.2-0.2-1.8l0.1-0.1l4.5,1.8L33.7,6.7  z"></path></g></svg>